HIERARCHY
ROOT Hips
{
	OFFSET 0.000000 97.167313 0.000000
	CHANNELS 6 Xposition Yposition Zposition Xrotation Yrotation Zrotation
	JOINT Spine
	{
		OFFSET 0.000000 13.784798 0.064400
		CHANNELS 3 Xrotation Yrotation Zrotation
		JOINT Spine1
		{
			OFFSET 0.000000 12.037903 0.404700
			CHANNELS 3 Xrotation Yrotation Zrotation
			JOINT Spine2
			{
				OFFSET 0.000000 17.795601 0.420200
				CHANNELS 3 Xrotation Yrotation Zrotation
				JOINT Neck
				{
					OFFSET 0.000000 39.131302 11.954600
					CHANNELS 3 Xrotation Yrotation Zrotation
					JOINT Head
					{
						OFFSET 0.000000 14.456192 15.627699
						CHANNELS 3 Xrotation Yrotation Zrotation
						JOINT HeadTop_End
						{
							OFFSET 0.000000 15.703506 7.603401
							CHANNELS 3 Xrotation Yrotation Zrotation
							End Site
							{
								OFFSET 0.000000 17.447403 0.000000
							}
						}
					}
				}
				JOINT LeftShoulder
				{
					OFFSET 17.399500 24.608795 1.168800
					CHANNELS 3 Xrotation Yrotation Zrotation
					JOINT LeftArm
					{
						OFFSET 18.980635 5.765305 1.818600
						CHANNELS 3 Xrotation Yrotation Zrotation
						JOINT LeftForeArm
						{
							OFFSET 49.290169 0.000000 0.000000
							CHANNELS 3 Xrotation Yrotation Zrotation
							JOINT LeftHand
							{
								OFFSET 31.562012 0.000000 0.000000
								CHANNELS 3 Xrotation Yrotation Zrotation
								JOINT LeftHandThumb1
								{
									OFFSET 6.133995 -4.388519 7.076070
									CHANNELS 3 Xrotation Yrotation Zrotation
									JOINT LeftHandThumb2
									{
										OFFSET 6.037666 -3.485840 3.485847
										CHANNELS 3 Xrotation Yrotation Zrotation
										JOINT LeftHandThumb3
										{
											OFFSET 6.496506 -3.750763 3.750761
											CHANNELS 3 Xrotation Yrotation Zrotation
											JOINT LeftHandThumb4
											{
												OFFSET 5.616882 -3.242905 3.242910
												CHANNELS 3 Xrotation Yrotation Zrotation
												End Site
												{
													OFFSET -1.254608 7.132141 0.375429
												}
											}
										}
									}
								}
								JOINT LeftHandPinky1
								{
									OFFSET 18.920792 -0.453171 -11.426712
									CHANNELS 3 Xrotation Yrotation Zrotation
									JOINT LeftHandPinky2
									{
										OFFSET 4.919586 0.000000 0.000000
										CHANNELS 3 Xrotation Yrotation Zrotation
										JOINT LeftHandPinky3
										{
											OFFSET 5.233047 0.000000 0.000000
											CHANNELS 3 Xrotation Yrotation Zrotation
											JOINT LeftHandPinky4
											{
												OFFSET 5.571716 0.000000 0.000000
												CHANNELS 3 Xrotation Yrotation Zrotation
												End Site
												{
													OFFSET -3.459808 4.342407 -0.466164
												}
											}
										}
									}
								}
								JOINT LeftHandRing1
								{
									OFFSET 22.726120 -0.094986 -6.500475
									CHANNELS 3 Xrotation Yrotation Zrotation
									JOINT LeftHandRing2
									{
										OFFSET 6.408615 0.000000 0.000000
										CHANNELS 3 Xrotation Yrotation Zrotation
										JOINT LeftHandRing3
										{
											OFFSET 6.150223 0.000000 0.000000
											CHANNELS 3 Xrotation Yrotation Zrotation
											JOINT LeftHandRing4
											{
												OFFSET 6.145386 0.000000 0.000000
												CHANNELS 3 Xrotation Yrotation Zrotation
												End Site
												{
													OFFSET -3.671402 4.923981 -0.202372
												}
											}
										}
									}
								}
								JOINT LeftHandMiddle1
								{
									OFFSET 23.373947 0.000000 0.000001
									CHANNELS 3 Xrotation Yrotation Zrotation
									JOINT LeftHandMiddle2
									{
										OFFSET 6.996567 0.000000 0.000000
										CHANNELS 3 Xrotation Yrotation Zrotation
										JOINT LeftHandMiddle3
										{
											OFFSET 7.015945 0.000000 0.000000
											CHANNELS 3 Xrotation Yrotation Zrotation
											JOINT LeftHandMiddle4
											{
												OFFSET 7.721573 0.000000 0.000000
												CHANNELS 3 Xrotation Yrotation Zrotation
												End Site
												{
													OFFSET -4.651108 6.158463 0.251582
												}
											}
										}
									}
								}
								JOINT LeftHandIndex1
								{
									OFFSET 21.310577 -0.490082 6.209344
									CHANNELS 3 Xrotation Yrotation Zrotation
									JOINT LeftHandIndex2
									{
										OFFSET 7.536453 0.000000 0.000000
										CHANNELS 3 Xrotation Yrotation Zrotation
										JOINT LeftHandIndex3
										{
											OFFSET 7.512344 0.000000 0.000000
											CHANNELS 3 Xrotation Yrotation Zrotation
											JOINT LeftHandIndex4
											{
												OFFSET 10.212402 0.000000 0.000001
												CHANNELS 3 Xrotation Yrotation Zrotation
												End Site
												{
													OFFSET -5.180801 8.690506 1.388433
												}
											}
										}
									}
								}
							}
						}
					}
				}
				JOINT RightShoulder
				{
					OFFSET -17.399500 24.608795 1.168800
					CHANNELS 3 Xrotation Yrotation Zrotation
					JOINT RightArm
					{
						OFFSET -18.980635 5.765305 1.818600
						CHANNELS 3 Xrotation Yrotation Zrotation
						JOINT RightForeArm
						{
							OFFSET -49.290169 0.000000 0.000000
							CHANNELS 3 Xrotation Yrotation Zrotation
							JOINT RightHand
							{
								OFFSET -31.562012 0.000000 0.000000
								CHANNELS 3 Xrotation Yrotation Zrotation
								JOINT RightHandThumb1
								{
									OFFSET -6.133995 -4.388519 7.076070
									CHANNELS 3 Xrotation Yrotation Zrotation
									JOINT RightHandThumb2
									{
										OFFSET -6.037666 -3.485840 3.485847
										CHANNELS 3 Xrotation Yrotation Zrotation
										JOINT RightHandThumb3
										{
											OFFSET -6.496506 -3.750763 3.750761
											CHANNELS 3 Xrotation Yrotation Zrotation
											JOINT RightHandThumb4
											{
												OFFSET -5.616882 -3.242905 3.242910
												CHANNELS 3 Xrotation Yrotation Zrotation
												End Site
												{
													OFFSET 1.254608 7.132141 0.375429
												}
											}
										}
									}
								}
								JOINT RightHandIndex1
								{
									OFFSET -21.310577 -0.490082 6.209344
									CHANNELS 3 Xrotation Yrotation Zrotation
									JOINT RightHandIndex2
									{
										OFFSET -7.536453 0.000000 0.000000
										CHANNELS 3 Xrotation Yrotation Zrotation
										JOINT RightHandIndex3
										{
											OFFSET -7.512344 0.000000 0.000000
											CHANNELS 3 Xrotation Yrotation Zrotation
											JOINT RightHandIndex4
											{
												OFFSET -10.212402 0.000000 0.000001
												CHANNELS 3 Xrotation Yrotation Zrotation
												End Site
												{
													OFFSET 5.180801 8.690506 1.388433
												}
											}
										}
									}
								}
								JOINT RightHandMiddle1
								{
									OFFSET -23.373947 0.000000 0.000001
									CHANNELS 3 Xrotation Yrotation Zrotation
									JOINT RightHandMiddle2
									{
										OFFSET -6.996567 0.000000 0.000000
										CHANNELS 3 Xrotation Yrotation Zrotation
										JOINT RightHandMiddle3
										{
											OFFSET -7.015945 0.000000 0.000000
											CHANNELS 3 Xrotation Yrotation Zrotation
											JOINT RightHandMiddle4
											{
												OFFSET -7.721573 0.000000 0.000000
												CHANNELS 3 Xrotation Yrotation Zrotation
												End Site
												{
													OFFSET 4.651108 6.158463 0.251582
												}
											}
										}
									}
								}
								JOINT RightHandRing1
								{
									OFFSET -22.726120 -0.094986 -6.500475
									CHANNELS 3 Xrotation Yrotation Zrotation
									JOINT RightHandRing2
									{
										OFFSET -6.408615 0.000000 0.000000
										CHANNELS 3 Xrotation Yrotation Zrotation
										JOINT RightHandRing3
										{
											OFFSET -6.150223 0.000000 0.000000
											CHANNELS 3 Xrotation Yrotation Zrotation
											JOINT RightHandRing4
											{
												OFFSET -6.145386 0.000000 0.000000
												CHANNELS 3 Xrotation Yrotation Zrotation
												End Site
												{
													OFFSET 3.671402 4.923981 -0.202372
												}
											}
										}
									}
								}
								JOINT RightHandPinky1
								{
									OFFSET -18.920792 -0.453171 -11.426712
									CHANNELS 3 Xrotation Yrotation Zrotation
									JOINT RightHandPinky2
									{
										OFFSET -4.919586 0.000000 0.000000
										CHANNELS 3 Xrotation Yrotation Zrotation
										JOINT RightHandPinky3
										{
											OFFSET -5.233047 0.000000 0.000000
											CHANNELS 3 Xrotation Yrotation Zrotation
											JOINT RightHandPinky4
											{
												OFFSET -5.571716 0.000000 0.000000
												CHANNELS 3 Xrotation Yrotation Zrotation
												End Site
												{
													OFFSET 3.459808 4.342407 -0.466164
												}
											}
										}
									}
								}
							}
						}
					}
				}
			}
		}
	}
	JOINT LeftUpLeg
	{
		OFFSET 19.899099 -7.885101 -3.429500
		CHANNELS 3 Xrotation Yrotation Zrotation
		JOINT LeftLeg
		{
			OFFSET 1.745560 -36.997807 10.304700
			CHANNELS 3 Xrotation Yrotation Zrotation
			JOINT LeftFoot
			{
				OFFSET -1.745558 -29.803308 -13.615400
				CHANNELS 3 Xrotation Yrotation Zrotation
				JOINT LeftToeBase
				{
					OFFSET 1.181900 -18.539904 15.226099
					CHANNELS 3 Xrotation Yrotation Zrotation
					JOINT LeftToe_End
					{
						OFFSET -0.863701 1.402801 16.534700
						CHANNELS 3 Xrotation Yrotation Zrotation
						End Site
						{
							OFFSET 0.000000 16.616566 0.000000
						}
					}
				}
			}
		}
	}
	JOINT RightUpLeg
	{
		OFFSET -19.899099 -7.885101 -3.429500
		CHANNELS 3 Xrotation Yrotation Zrotation
		JOINT RightLeg
		{
			OFFSET -1.745560 -36.997807 10.304700
			CHANNELS 3 Xrotation Yrotation Zrotation
			JOINT RightFoot
			{
				OFFSET 1.745558 -29.803308 -13.615400
				CHANNELS 3 Xrotation Yrotation Zrotation
				JOINT RightToeBase
				{
					OFFSET -1.181900 -18.539904 15.226099
					CHANNELS 3 Xrotation Yrotation Zrotation
					JOINT RightToe_End
					{
						OFFSET 0.863701 1.402801 16.534700
						CHANNELS 3 Xrotation Yrotation Zrotation
						End Site
						{
							OFFSET 0.000000 16.616566 0.000000
						}
					}
				}
			}
		}
	}
}
MOTION
Frames: 4
Frame Time: 0.033333
1.123976 94.481758 2.762804 -4.056585 6.150117 -1.698622 4.903012 -0.342382 1.154549 5.814413 -0.121248 1.891503 -4.300225 -0.608020 -1.115062 1.348863 -1.122446 0.966616 4.180612 -0.441330 -1.260351 -0.000000 0.000000 -0.000000 1.687380 -7.781276 -3.495010 -0.671930 -2.004021 -76.954205 6.346062 -10.905880 1.751780 -0.215900 -0.743851 3.407688 -3.786637 8.458012 12.355382 7.478474 11.594933 -1.281187 1.099771 8.860683 5.173494 -0.000001 -0.000002 -0.000003 -6.437481 11.282563 -19.770930 0.037264 0.251326 -30.842143 0.001915 0.134817 -11.459641 -0.000000 0.000001 0.000001 -4.873107 10.020050 -7.875474 -0.020640 0.335916 -30.084733 0.121671 0.713919 -12.603135 -0.000000 0.000001 0.000002 -1.935734 5.644663 -11.386944 0.106895 0.707435 -24.767384 0.016761 0.019715 -9.474774 0.000001 -0.000000 0.000004 2.378700 3.620434 -6.815238 0.000190 0.249691 -17.103504 0.030318 0.177338 -12.954571 -0.000003 0.000003 0.000002 2.088909 10.213785 4.097141 1.436091 3.709013 75.271799 15.720275 15.338546 -4.555599 -4.674562 -0.553311 -0.689861 -0.464244 -8.992506 -6.084881 7.449375 -11.614428 1.291268 1.128409 -8.847593 -5.184696 0.000002 0.000000 -0.000001 2.362069 -3.634249 8.333108 0.014204 -0.252990 18.622437 0.018939 -0.182379 14.473436 -0.000003 -0.000001 -0.000001 -1.983688 -5.671333 13.530153 0.119636 -0.656151 26.914133 0.016200 -0.036401 11.621529 0.000001 -0.000000 -0.000009 -4.978011 -10.100878 10.695777 -0.012096 -0.340801 32.924032 0.105493 -0.698167 15.440845 0.000001 -0.000001 -0.000003 -6.474141 -11.323131 23.226062 0.055858 -0.250363 34.317835 0.024761 -0.133018 14.920019 0.000001 -0.000001 0.000000 -2.707957 10.847322 11.101663 11.916794 -7.001881 0.061957 -6.410900 1.049912 -6.997424 -0.000190 0.000001 0.000013 -0.000000 0.000001 0.000000 -1.057981 -5.881168 1.262822 9.414042 3.538544 -0.492911 -4.143656 -0.096081 0.575008 -0.001323 0.000001 0.000001 -0.000000 0.000000 -0.000000 
1.099063 94.414917 2.833209 -3.952910 5.753828 -1.752117 5.413595 -0.321439 1.129952 5.523349 -0.132365 1.904948 -4.333684 -0.594655 -1.024078 1.249042 -1.042769 0.952395 3.901312 -0.350213 -1.362096 0.000000 -0.000000 0.000000 1.620624 -7.553993 -3.859033 -0.750630 -2.298590 -76.609205 6.273535 -11.003293 1.440388 -0.243524 -0.479323 4.016781 -3.781422 8.444696 12.355069 7.491276 11.602801 -1.294827 1.093911 8.860348 5.184004 -0.000003 -0.000000 -0.000004 -6.456863 11.349758 -19.704290 0.037301 0.251335 -30.842119 0.001768 0.134507 -11.400025 0.000000 -0.000001 -0.000002 -4.897906 10.077144 -7.782727 -0.020651 0.335920 -30.084746 0.121209 0.713705 -12.551891 -0.000001 0.000000 -0.000000 -1.949634 5.684082 -11.317361 0.106868 0.707397 -24.756666 0.016551 0.019410 -9.420636 0.000001 -0.000001 0.000006 2.378287 3.651235 -6.737364 0.000117 0.249668 -17.072311 0.030172 0.177327 -12.912143 -0.000003 0.000001 0.000003 1.990920 10.065879 4.380719 2.012891 4.165863 74.646010 15.644321 15.965986 -4.498533 -5.147700 -0.645689 -1.036401 -0.465239 -9.107162 -6.069307 7.427911 -11.616015 1.254782 1.114882 -8.761342 -5.132552 -0.000003 0.000000 -0.000000 2.399642 -3.617115 8.695817 0.014315 -0.253093 18.777522 0.019658 -0.182450 14.666547 -0.000004 -0.000001 -0.000001 -1.929779 -5.635322 13.789360 0.119808 -0.656293 26.948766 0.016965 -0.037334 11.808892 0.000004 -0.000000 -0.000004 -4.878360 -10.012139 10.982422 -0.012120 -0.340583 32.890206 0.106796 -0.698739 15.582330 0.000001 -0.000000 -0.000003 -6.398778 -11.189916 23.374282 0.055672 -0.250136 34.259805 0.025180 -0.133641 15.056908 -0.000001 -0.000005 -0.000000 -2.682147 10.972489 11.233311 12.082332 -6.785767 -0.008002 -6.689546 1.089799 -7.045532 -0.064994 -0.067328 0.122108 0.000000 -0.000001 0.000000 -1.390529 -5.911629 1.314452 9.672105 3.988955 -0.409921 -4.139135 -0.049214 0.396833 -0.061732 -0.101793 0.024607 0.000000 0.000000 -0.000000 
1.040460 94.307365 2.921101 -3.789953 5.341005 -1.848767 5.958590 -0.332219 1.151120 5.141071 -0.169357 1.923944 -4.446216 -0.615078 -0.923600 1.410481 -0.905649 0.902990 3.322579 -0.216240 -1.408428 -0.000001 0.000000 -0.000000 1.548567 -7.344117 -4.190276 -0.738839 -2.454093 -76.271759 6.410560 -11.185897 1.169920 -0.165286 -0.486844 4.486449 -3.771919 8.406870 12.363868 7.521781 11.626316 -1.322865 1.078458 8.859397 5.211606 -0.000000 0.000002 -0.000002 -6.523218 11.490380 -19.529463 0.037299 0.251332 -30.842160 0.001378 0.133801 -11.244277 -0.000000 0.000000 -0.000002 -4.974136 10.195207 -7.550991 -0.020596 0.335958 -30.094128 0.120051 0.713133 -12.427169 -0.000001 -0.000001 0.000003 -1.987044 5.769550 -11.160289 0.106856 0.707364 -24.750447 0.016069 0.018790 -9.295205 0.000000 -0.000000 0.000004 2.364739 3.731894 -6.573054 0.000103 0.249607 -17.019873 0.029825 0.177302 -12.828822 -0.000000 0.000002 -0.000001 1.963287 9.894817 4.423709 2.260619 4.855701 74.274394 15.698054 15.889798 -4.314603 -5.726699 -0.387999 -1.746672 -0.466444 -9.221804 -6.053906 7.406806 -11.617073 1.216802 1.099762 -8.676696 -5.076821 -0.000004 0.000004 0.000003 2.437490 -3.599257 9.068548 0.014479 -0.253230 18.939525 0.020413 -0.182509 14.866487 0.000003 -0.000003 0.000001 -1.876020 -5.605239 14.049334 0.120012 -0.656424 26.984054 0.017730 -0.038272 11.996899 -0.000001 -0.000001 -0.000004 -4.781091 -9.925838 11.260860 -0.012160 -0.340337 32.851830 0.108110 -0.699307 15.719016 0.000001 0.000001 -0.000001 -6.327293 -11.055389 23.505580 0.055456 -0.249862 34.190585 0.025508 -0.134198 15.183002 0.000000 -0.000002 -0.000001 -2.773733 11.031969 11.433962 12.412003 -6.509732 -0.029352 -7.068273 1.151212 -7.165737 -0.112684 -0.238886 0.211505 0.000000 0.000001 0.000000 -1.808711 -5.883373 1.394778 10.053407 4.259713 -0.279119 -4.195338 -0.010703 0.184492 -0.071859 0.008575 0.002483 -0.000000 0.000000 -0.000000 
0.954405 94.188408 3.027618 -3.659826 4.835841 -1.918988 6.546102 -0.329352 1.139662 4.751685 -0.210812 1.960432 -4.554704 -0.640007 -0.802037 1.575476 -0.725566 0.897141 2.916524 -0.028367 -1.532714 -0.000001 -0.000000 0.000000 1.470489 -7.175979 -4.583580 -0.737733 -2.574336 -75.874195 6.760781 -11.228002 0.916264 -0.224466 -0.140380 4.670777 -3.758306 8.351501 12.376827 7.562014 11.662559 -1.361171 1.056128 8.858015 5.251582 -0.000004 -0.000003 -0.000001 -6.626176 11.682449 -19.274358 0.037282 0.251314 -30.837597 0.000820 0.132733 -11.018356 -0.000000 0.000002 -0.000005 -5.089990 10.355116 -7.217162 -0.020634 0.336101 -30.111459 0.118474 0.712320 -12.248864 0.000001 0.000000 0.000003 -2.042466 5.887459 -10.939929 0.106813 0.707359 -24.747565 0.015380 0.017859 -9.118205 0.000001 -0.000001 0.000004 2.345344 3.848398 -6.347175 0.000042 0.249574 -16.952808 0.029406 0.177255 -12.716307 -0.000001 -0.000000 0.000001 1.897486 9.758486 4.573402 2.759373 5.460684 73.695706 15.333630 16.213689 -4.180478 -6.341271 -0.005519 -1.942087 -0.467651 -9.336301 -6.038412 7.386836 -11.617162 1.177633 1.084766 -8.592136 -5.020914 0.000001 -0.000001 0.000001 2.477248 -3.593869 9.450386 0.014657 -0.253360 19.107371 0.021171 -0.182544 15.072226 0.000000 0.000000 -0.000001 -1.822179 -5.580071 14.309899 0.120176 -0.656562 27.019960 0.018528 -0.039214 12.185481 -0.000001 0.000002 -0.000001 -4.685485 -9.841684 11.532755 -0.012181 -0.340068 32.808967 0.109330 -0.699829 15.851645 -0.000002 0.000001 -0.000003 -6.258712 -10.920021 23.622341 0.055227 -0.249563 34.112485 0.025865 -0.134714 15.300005 -0.000001 -0.000000 0.000002 -2.761344 11.102718 11.627038 12.724803 -6.150250 -0.032986 -7.482970 1.232366 -7.346415 -0.202020 0.011843 0.360777 -0.000000 0.000001 -0.000000 -2.272819 -5.834804 1.504176 10.544616 4.630222 -0.178704 -4.267856 0.044780 -0.111834 -0.125985 0.064607 0.047590 0.000000 0.000000 -0.000000 
